HIERARCHY
ROOT Hips
{
	OFFSET 0.000000 0.000000 0.000000 
	CHANNELS 6 Xposition Yposition Zposition Zrotation Yrotation Xrotation
	JOINT LeftUpLeg
	{
		OFFSET 1.363060 -1.794630 0.839290 
		CHANNELS 3 Zrotation Yrotation Xrotation
		JOINT LeftLeg
		{
			OFFSET 2.448110 -6.726130 0.000000 
			CHANNELS 3 Zrotation Yrotation Xrotation
			JOINT LeftFoot
			{
				OFFSET 2.562200 -7.039590 0.000000 
				CHANNELS 3 Zrotation Yrotation Xrotation
				JOINT LeftToeBase
				{
					OFFSET 0.157640 -0.433110 2.322550 
					CHANNELS 3 Zrotation Yrotation Xrotation
					End Site
					{
						OFFSET 0.000000 0.000000 0.000000 
					}
				}
			}
		}
	}
	JOINT RightUpLeg
	{
		OFFSET -1.305520 -1.794630 0.839290 
		CHANNELS 3 Zrotation Yrotation Xrotation
		JOINT RightLeg
		{
			OFFSET -2.542530 -6.985550 0.000000 
			CHANNELS 3 Zrotation Yrotation Xrotation
			JOINT RightFoot
			{
				OFFSET -2.568260 -7.056230 0.000000 
				CHANNELS 3 Zrotation Yrotation Xrotation
				JOINT RightToeBase
				{
					OFFSET -0.164730 -0.452590 2.363150 
					CHANNELS 3 Zrotation Yrotation Xrotation
					End Site
					{
						OFFSET 0.000000 0.000000 0.000000 
					}
				}
			}
		}
	}
	JOINT Spine
	{
		OFFSET 0.028270 2.035590 -0.193380 
		CHANNELS 3 Zrotation Yrotation Xrotation
		JOINT Spine1
		{
			OFFSET 0.056720 2.048850 -0.042750 
			CHANNELS 3 Zrotation Yrotation Xrotation
			JOINT Neck1
			{
				OFFSET -0.054170 1.746240 0.172020 
				CHANNELS 3 Zrotation Yrotation Xrotation
				JOINT Head
				{
					OFFSET 0.104070 1.761360 -0.123970 
					CHANNELS 3 Zrotation Yrotation Xrotation
					End Site
					{
						OFFSET 0.000000 0.000000 0.000000 
					}
				}
			}
			JOINT LeftArm
			{
				OFFSET 3.362410 1.200890 -0.311210 
				CHANNELS 3 Zrotation Yrotation Xrotation
				JOINT LeftForeArm
				{
					OFFSET 4.983000 -0.000000 -0.000000 
					CHANNELS 3 Zrotation Yrotation Xrotation
					JOINT LeftHand
					{
						OFFSET 3.483560 -0.000000 -0.000000 
						CHANNELS 3 Zrotation Yrotation Xrotation
						JOINT LeftHandIndex1
						{
							OFFSET 0.715260 -0.000000 -0.000000 
							CHANNELS 3 Zrotation Yrotation Xrotation
							End Site
							{
								OFFSET 0.000000 0.000000 0.000000 
							}
						}
					}
				}
			}
			JOINT RightArm
			{
				OFFSET -3.136600 1.374050 -0.404650 
				CHANNELS 3 Zrotation Yrotation Xrotation
				JOINT RightForeArm
				{
					OFFSET -5.241900 -0.000000 -0.000000 
					CHANNELS 3 Zrotation Yrotation Xrotation
					JOINT RightHand
					{
						OFFSET -3.444170 -0.000000 -0.000000 
						CHANNELS 3 Zrotation Yrotation Xrotation
						JOINT RightHandIndex1
						{
							OFFSET -0.622530 -0.000000 -0.000000 
							CHANNELS 3 Zrotation Yrotation Xrotation
							End Site
							{
								OFFSET 0.000000 0.000000 0.000000 
							}
						}
					}
				}
			}
		}
	}
}
MOTION
Frames: 13
Frame Time: 0.041667
25.455777 17.107778 -7.761343 -3.207683 -41.615636 10.493114 -17.051454 10.625034 7.672660 -1.104023 6.536746 13.675449 -1.222923 8.349857 -0.442742 1.364100 -7.392300 -20.883000 4.078687 4.344426 -45.021598 -1.866733 -12.915559 32.680348 -0.873116 -3.737237 17.232550 -0.783400 5.650800 -15.774400 0.777853 -4.717739 -1.826445 3.260840 -2.867162 4.066833 8.173672 -7.907567 -4.586260 3.763400 -3.826100 -3.555200 -49.781004 5.945788 58.904988 54.205911 -52.129537 -32.805578 0.929148 0.146908 5.280623 -7.125000 0.000000 0.000000 64.997475 -9.081115 38.042618 -30.690968 41.281356 -14.132279 1.969559 -0.393184 9.082432 7.125000 0.000000 0.000000 
25.290222 17.113437 -7.644611 -3.169239 -41.949879 10.273398 -16.911939 11.170606 8.970165 -1.140549 6.090602 12.496268 -1.231773 8.498723 0.911927 1.416900 -7.528100 -21.289500 4.087851 4.706761 -44.912882 -1.773008 -12.854508 32.293212 -0.692034 -4.195347 16.650817 -0.897100 6.036600 -16.890700 0.782910 -4.863449 -1.832491 3.033764 -2.944759 4.122011 8.080530 -7.663874 -4.518364 3.732900 -3.702600 -3.549600 -49.836570 6.171133 59.481999 54.759723 -52.327630 -33.198045 0.957934 0.117034 5.305545 -7.125000 0.000000 0.000000 65.755418 -10.769909 37.564545 -31.890701 42.195201 -14.953341 1.980567 -0.266567 6.653824 7.125000 0.000000 0.000000 
25.117454 17.125976 -7.522331 -3.158094 -42.245726 10.052633 -16.663690 11.802979 10.200482 -1.148768 5.688507 11.463235 -1.104409 8.451469 2.581607 1.508700 -7.757500 -21.979900 4.198941 4.973221 -44.753877 -1.699131 -12.811207 31.991572 -0.488190 -4.663509 15.925654 -1.005300 6.380000 -17.891200 0.804647 -5.029717 -1.850032 2.841434 -3.030583 4.163120 7.928134 -7.428889 -4.384968 3.662100 -3.583600 -3.515700 -50.026190 6.508596 60.057968 55.283007 -52.529889 -33.561362 0.983294 0.092190 5.382426 -7.125000 0.000000 0.000000 66.338035 -12.545216 37.394169 -33.053614 43.063242 -15.758197 2.002657 -0.109973 4.215558 7.125000 0.000000 0.000000 
24.938805 17.144173 -7.394614 -3.171567 -42.505764 9.825047 -16.315561 12.465927 11.286528 -1.127216 5.393796 10.752330 -0.807829 8.135418 4.493143 1.599500 -7.976700 -22.643300 4.493883 4.995343 -44.588380 -1.642576 -12.770746 31.775685 -0.302711 -5.036693 15.152190 -1.088000 6.629200 -18.621400 0.836095 -5.213437 -1.881152 2.665610 -3.121710 4.179971 7.713575 -7.205012 -4.183232 3.548800 -3.471000 -3.458600 -50.319476 6.975192 60.653637 55.793071 -52.741590 -33.911378 1.002876 0.073387 5.452723 -7.125000 0.000000 0.000000 66.760529 -14.380019 37.465538 -34.094614 43.838589 -16.496134 2.028807 0.054565 2.047403 7.125000 0.000000 0.000000 
24.755385 17.166921 -7.261904 -3.224621 -42.744650 9.596320 -15.873412 13.105373 12.142072 -1.076679 5.274771 10.551208 -0.354723 7.549026 6.549404 1.669000 -8.139700 -23.139100 5.055665 4.650440 -44.461651 -1.599254 -12.720638 31.641170 -0.179144 -5.216380 14.439853 -1.156200 6.826700 -19.203000 0.864761 -5.395792 -1.924080 2.468196 -3.207176 4.165470 7.478447 -6.991004 -3.909886 3.414000 -3.365300 -3.376500 -50.664762 7.568676 61.296230 56.312147 -52.965316 -34.266292 1.015891 0.060103 5.429839 -7.125000 0.000000 0.000000 67.091923 -16.260661 37.679190 -34.983964 44.509148 -17.141983 2.051509 0.209760 0.259299 7.125000 0.000000 0.000000 
24.568969 17.192109 -7.125310 -3.320018 -42.981507 9.367576 -15.358480 13.725637 12.678684 -0.997564 5.375600 10.972528 0.163361 6.841629 8.679718 1.762100 -8.351800 -23.787800 5.830493 4.029885 -44.357601 -1.568519 -12.668605 31.580952 -0.110993 -5.247634 13.838118 -1.177800 6.888100 -19.384300 0.881588 -5.556573 -1.973856 2.225026 -3.276537 4.119926 7.255872 -6.793913 -3.570579 3.275500 -3.269700 -3.267100 -51.021121 8.263336 62.002883 56.848972 -53.197854 -34.631271 1.022285 0.052198 5.241206 -7.125000 0.000000 0.000000 67.404191 -18.174174 37.928386 -35.735770 45.087043 -17.700363 2.068095 0.346794 -1.146687 7.125000 0.000000 0.000000 
24.380556 17.219517 -6.985608 -3.435286 -43.244636 9.134026 -14.810495 14.303745 12.894561 -0.891242 5.684179 11.994571 0.780945 5.936318 10.928613 1.791000 -8.416500 -23.986500 6.758564 3.206290 -44.276737 -1.548359 -12.619717 31.593828 -0.126354 -5.075010 13.411567 -1.113500 6.703700 -18.840500 0.883745 -5.682236 -2.026865 1.942760 -3.324183 4.051605 7.060265 -6.610164 -3.190156 3.144400 -3.181700 -3.137900 -51.374471 9.031227 62.766554 57.396548 -53.433098 -34.998558 1.022424 0.050027 4.847582 -7.125000 0.000000 0.000000 67.728459 -20.103265 38.151060 -36.385464 45.594091 -18.191182 2.077572 0.462874 -2.278356 7.125000 0.000000 0.000000 
24.190478 17.247146 -6.844132 -3.529361 -43.564085 8.887778 -14.276022 14.861700 12.806061 -0.759151 6.158360 13.501992 1.439559 4.934193 13.315474 1.748900 -8.322200 -23.697000 7.772700 2.256054 -44.228390 -1.539604 -12.581962 31.688547 -0.248468 -4.645570 13.196291 -0.972400 6.277800 -17.592500 0.875446 -5.767576 -2.080866 1.659449 -3.349727 3.981065 6.886228 -6.429052 -2.791328 3.019500 -3.095200 -2.995700 -51.745566 9.832006 63.559188 57.901291 -53.654797 -35.320776 1.016849 0.055219 4.254739 -7.125000 0.000000 0.000000 68.059675 -22.018171 38.313810 -36.955778 46.041670 -18.627012 2.079024 0.555763 -3.252173 7.125000 0.000000 0.000000 
23.999402 17.273000 -6.702101 -3.563230 -43.960130 8.624927 -13.797848 15.419355 12.427205 -0.600513 6.759567 15.389050 2.103516 3.895873 15.851272 1.627500 -8.042700 -22.843900 8.785497 1.290636 -44.199911 -1.543670 -12.563436 31.869352 -0.478763 -3.953385 13.187650 -0.778100 5.631900 -15.720200 0.871654 -5.830052 -2.138336 1.438119 -3.363822 3.921233 6.702275 -6.236370 -2.363800 2.886300 -3.001500 -2.829200 -52.190916 10.642893 64.321605 58.312134 -53.850824 -35.554709 1.005443 0.070064 3.510490 -7.125000 0.000000 0.000000 68.334764 -23.879420 38.428391 -37.455750 46.432267 -19.013997 2.072989 0.627168 -4.114563 7.125000 0.000000 0.000000 
23.808436 17.295636 -6.560957 -3.504497 -44.432611 8.337085 -13.411202 15.966784 11.785732 -0.410159 7.465670 17.580314 2.707055 2.943159 18.455456 1.447600 -7.605600 -21.522400 9.711250 0.412720 -44.156489 -1.562947 -12.570591 32.136614 -0.793743 -3.048849 13.346581 -0.577300 4.865600 -13.525500 0.877215 -5.892033 -2.200575 1.295832 -3.378392 3.874763 6.480776 -6.019180 -1.912219 2.730500 -2.893600 -2.635800 -52.722639 11.463261 65.001887 58.620146 -54.019814 -35.698874 0.987649 0.094162 2.691307 -7.125000 0.000000 0.000000 68.512137 -25.645739 38.526822 -37.878469 46.762983 -19.347631 2.062319 0.679743 -4.841813 7.125000 0.000000 0.000000 
23.618580 17.314389 -6.421811 -3.337919 -44.968337 8.013950 -13.129204 16.491042 10.914583 -0.174796 8.267332 20.031651 3.201886 2.177109 21.020871 1.249000 -7.085800 -19.969900 10.471449 -0.272581 -44.038230 -1.598809 -12.607898 32.481388 -1.148277 -2.034853 13.601798 -0.409700 4.109000 -11.383500 0.884600 -5.954226 -2.263411 1.209138 -3.393474 3.842446 6.212461 -5.786706 -1.483604 2.545700 -2.777600 -2.441300 -53.293119 12.277404 65.606952 58.823325 -54.160169 -35.757569 0.963828 0.124650 1.884190 -7.125000 0.000000 0.000000 68.628596 -27.295675 38.586964 -38.218472 47.033734 -19.624239 2.050362 0.715149 -5.361548 7.125000 0.000000 0.000000 
23.430278 17.326595 -6.286659 -3.084799 -45.561531 7.657132 -12.954610 16.929598 9.886522 0.122195 9.155434 22.710973 3.583601 1.607203 23.436082 1.041800 -6.491500 -18.217200 11.016159 -0.643474 -43.773681 -1.652263 -12.682234 32.895720 -1.488010 -1.044287 13.859492 -0.290300 3.464900 -9.576000 0.890443 -6.005124 -2.322842 1.169438 -3.403015 3.815349 5.907531 -5.553644 -1.123819 2.338000 -2.662200 -2.274600 -53.852574 13.071766 66.164631 58.927976 -54.273142 -35.740374 0.935324 0.158180 1.162453 -7.125000 0.000000 0.000000 68.735102 -28.834137 38.567490 -38.498857 47.258574 -19.859557 2.037422 0.735906 -5.600308 7.125000 0.000000 0.000000 
23.245748 17.331699 -6.155724 -2.756997 -46.181989 7.242593 -12.880289 17.227934 8.796461 0.499249 10.116833 25.586583 3.853771 1.221619 25.576616 0.859100 -5.910700 -16.525600 11.355672 -0.727531 -43.329929 -1.724457 -12.790387 33.372636 -1.789974 -0.134389 14.065284 -0.225100 3.053800 -8.428600 0.889957 -6.054049 -2.375839 1.148244 -3.410508 3.770882 5.598624 -5.310552 -0.864333 2.127100 -2.543100 -2.146200 -54.377424 13.840023 66.671534 58.940264 -54.358677 -35.656889 0.904042 0.191816 0.577591 -7.125000 0.000000 0.000000 68.854916 -30.252247 38.466048 -38.741347 47.449158 -20.065889 2.022896 0.745148 -5.524398 7.125000 0.000000 0.000000 
